<svg xmlns="http://www.w3.org/2000/svg" xmlns:xlink="http://www.w3.org/1999/xlink" preserveAspectRatio="xMidYMid" width="90" height="90" viewBox="0 0 60 60">
  <path d="M59.000,51.999 L38.002,51.999 C34.141,51.999 31.000,55.139 31.000,58.999 C31.000,59.553 30.552,59.999 30.000,59.999 C29.448,59.999 29.000,59.553 29.000,58.999 C29.000,55.139 25.859,51.999 21.998,51.999 L1.000,51.999 C0.448,51.999 -0.000,51.552 -0.000,50.999 L-0.000,0.999 C-0.000,0.446 0.448,-0.002 1.000,-0.002 L22.267,-0.002 C22.274,-0.002 22.280,0.002 22.287,0.002 C25.634,0.010 28.541,1.912 30.000,4.689 C31.459,1.912 34.366,0.010 37.713,0.002 C37.720,0.002 37.726,-0.002 37.733,-0.002 L59.000,-0.002 C59.552,-0.002 60.000,0.446 60.000,0.999 L60.000,50.999 C60.000,51.552 59.552,51.999 59.000,51.999 ZM29.000,8.732 C29.000,5.021 25.980,2.002 22.267,2.002 C22.263,2.002 22.259,2.000 22.255,2.000 L2.000,2.000 L2.000,49.999 L22.267,49.999 C22.299,49.999 22.326,50.015 22.357,50.018 C25.037,50.124 27.419,51.399 29.000,53.356 L29.000,8.733 C29.000,8.733 29.000,8.733 29.000,8.732 C29.000,8.732 29.000,8.732 29.000,8.732 ZM58.000,2.000 L37.745,2.000 C37.741,2.000 37.737,2.002 37.733,2.002 C34.021,2.002 31.000,5.021 31.000,8.732 C31.000,8.732 31.000,8.732 31.000,8.732 C31.000,8.733 31.000,8.733 31.000,8.733 L31.000,53.356 C32.581,51.399 34.963,50.124 37.643,50.018 C37.674,50.015 37.701,49.999 37.733,49.999 L58.000,49.999 L58.000,2.000 ZM36.000,38.000 C36.000,37.446 36.448,37.000 37.000,37.000 L52.000,37.000 C52.552,37.000 53.000,37.446 53.000,38.000 C53.000,38.552 52.552,39.000 52.000,39.000 L37.000,39.000 C36.448,39.000 36.000,38.552 36.000,38.000 ZM52.000,27.999 L37.000,27.999 C36.448,27.999 36.000,27.552 36.000,26.998 C36.000,26.447 36.448,25.999 37.000,25.999 L52.000,25.999 C52.552,25.999 53.000,26.447 53.000,26.998 C53.000,27.552 52.552,27.999 52.000,27.999 ZM52.000,15.999 L37.000,15.999 C36.448,15.999 36.000,15.552 36.000,14.999 C36.000,14.446 36.448,13.999 37.000,13.999 L52.000,13.999 C52.552,13.999 53.000,14.446 53.000,14.999 C53.000,15.552 52.552,15.999 52.000,15.999 ZM23.000,39.000 L8.000,39.000 C7.448,39.000 7.000,38.552 7.000,38.000 C7.000,37.446 7.448,37.000 8.000,37.000 L23.000,37.000 C23.552,37.000 24.000,37.446 24.000,38.000 C24.000,38.552 23.552,39.000 23.000,39.000 ZM23.000,27.999 L8.000,27.999 C7.448,27.999 7.000,27.552 7.000,26.998 C7.000,26.447 7.448,25.999 8.000,25.999 L23.000,25.999 C23.552,25.999 24.000,26.447 24.000,26.998 C24.000,27.552 23.552,27.999 23.000,27.999 ZM23.000,15.999 L8.000,15.999 C7.448,15.999 7.000,15.552 7.000,14.999 C7.000,14.446 7.448,13.999 8.000,13.999 L23.000,13.999 C23.552,13.999 24.000,14.446 24.000,14.999 C24.000,15.552 23.552,15.999 23.000,15.999 Z" class="cls-1"/>
</svg>
