<svg xmlns="http://www.w3.org/2000/svg" xmlns:xlink="http://www.w3.org/1999/xlink" preserveAspectRatio="xMidYMid" width="96" height="95.82" viewBox="0 0 48 47.91">
  <defs>
    <style>
      .cls-1 {
        fill: #000;
        fill-rule: evenodd;
      }
    </style>
  </defs>
  <path d="M47.000,18.909 L44.000,18.909 C43.447,18.909 43.000,18.507 43.000,17.956 C43.000,17.405 43.447,16.909 44.000,16.909 L47.000,16.909 C47.553,16.909 48.000,17.405 48.000,17.956 C48.000,18.507 47.553,18.909 47.000,18.909 ZM41.707,5.687 C41.512,5.882 41.256,5.980 41.000,5.980 C40.744,5.980 40.488,5.882 40.293,5.687 C39.902,5.298 39.902,4.666 40.293,4.276 L44.293,0.284 C44.684,-0.106 45.316,-0.106 45.707,0.284 C46.098,0.674 46.098,1.306 45.707,1.695 L41.707,5.687 ZM31.898,31.677 C31.164,32.339 30.997,33.765 30.997,34.212 L30.997,42.479 C30.997,42.530 30.993,42.581 30.985,42.631 C30.703,44.454 28.880,47.898 23.998,47.898 C19.117,47.898 17.293,44.454 17.011,42.631 C17.003,42.581 16.999,42.530 16.999,42.479 L16.999,34.215 C16.995,33.741 16.824,32.366 16.089,31.668 C11.453,28.178 8.998,23.628 8.998,18.498 C8.998,9.945 15.727,2.986 23.998,2.986 C32.269,2.986 38.998,9.945 38.998,18.498 C38.998,23.633 36.540,28.186 31.898,31.677 ZM23.998,45.902 C28.082,45.902 28.878,42.977 28.997,42.388 L28.997,37.981 C27.333,38.667 25.706,38.925 24.224,38.925 C22.051,38.925 20.210,38.395 18.999,37.930 L18.999,42.390 C19.114,42.961 19.904,45.902 23.998,45.902 ZM23.998,4.982 C16.830,4.982 10.998,11.045 10.998,18.498 C10.998,24.190 14.459,27.966 17.363,30.131 C17.380,30.144 17.388,30.162 17.403,30.176 C17.417,30.188 17.435,30.191 17.448,30.204 C18.954,31.612 18.999,33.949 18.999,34.212 L18.999,35.772 C20.422,36.432 24.653,37.986 28.997,35.777 L28.997,34.212 C28.997,33.943 29.042,31.553 30.564,30.189 C30.576,30.179 30.590,30.176 30.602,30.167 C30.615,30.156 30.620,30.141 30.634,30.131 C33.537,27.966 36.998,24.190 36.998,18.498 C36.998,11.045 31.166,4.982 23.998,4.982 ZM3.707,35.629 C3.512,35.824 3.256,35.922 3.000,35.922 C2.744,35.922 2.488,35.824 2.293,35.629 C1.902,35.239 1.902,34.607 2.293,34.218 L6.293,30.226 C6.684,29.836 7.316,29.836 7.707,30.226 C8.098,30.615 8.098,31.247 7.707,31.636 L3.707,35.629 ZM6.999,5.980 C6.743,5.980 6.487,5.882 6.292,5.687 L2.292,1.695 C1.901,1.306 1.901,0.674 2.292,0.284 C2.683,-0.106 3.315,-0.106 3.706,0.284 L7.706,4.276 C8.097,4.666 8.097,5.298 7.706,5.687 C7.511,5.882 7.255,5.980 6.999,5.980 ZM5.000,17.956 C5.000,18.507 4.553,18.909 4.000,18.909 L1.000,18.909 C0.447,18.909 0.000,18.507 0.000,17.956 C0.000,17.405 0.447,16.909 1.000,16.909 L4.000,16.909 C4.553,16.909 5.000,17.405 5.000,17.956 ZM41.708,30.226 L45.708,34.218 C46.099,34.607 46.099,35.239 45.708,35.629 C45.513,35.824 45.257,35.922 45.001,35.922 C44.745,35.922 44.489,35.824 44.294,35.629 L40.294,31.636 C39.903,31.247 39.903,30.615 40.294,30.226 C40.685,29.836 41.317,29.836 41.708,30.226 Z" class="cls-1"/>
</svg>
