<svg xmlns="http://www.w3.org/2000/svg" xmlns:xlink="http://www.w3.org/1999/xlink" preserveAspectRatio="xMidYMid" width="90.093" height="90" viewBox="0 0 60.062 60">
  <defs>
    <style>
      .cls-1 {
        fill: #4a9fcc;
        fill-rule: evenodd;
      }
    </style>
  </defs>
  <path d="M51.260,51.212 C45.586,56.879 38.042,59.999 30.018,59.999 C21.993,59.999 14.449,56.879 8.776,51.212 C-2.937,39.514 -2.937,20.482 8.776,8.786 C14.449,3.121 21.993,-0.000 30.018,-0.000 C38.042,-0.000 45.586,3.121 51.260,8.786 C56.935,14.451 60.061,21.985 60.061,29.999 C60.061,38.012 56.935,45.546 51.260,51.212 ZM49.844,10.200 C44.548,4.912 37.507,1.998 30.018,1.998 C22.528,1.998 15.487,4.912 10.192,10.200 C-0.740,21.118 -0.740,38.881 10.192,49.797 C15.487,55.086 22.528,57.999 30.018,57.999 C37.507,57.999 44.548,55.086 49.844,49.797 C55.141,44.510 58.058,37.479 58.058,29.999 C58.058,22.520 55.141,15.488 49.844,10.200 ZM34.025,46.999 L26.014,46.999 C25.461,46.999 25.013,46.552 25.013,46.000 C25.013,45.447 25.461,44.999 26.014,44.999 L29.018,44.999 L29.018,26.999 L26.014,26.999 C25.461,26.999 25.013,26.552 25.013,26.000 C25.013,25.448 25.461,25.000 26.014,25.000 L30.020,25.000 C30.573,25.000 31.021,25.448 31.021,26.000 L31.021,44.999 L34.025,44.999 C34.578,44.999 35.027,45.447 35.027,46.000 C35.027,46.552 34.578,46.999 34.025,46.999 ZM30.020,20.000 C27.811,20.000 26.014,18.205 26.014,16.000 C26.014,13.794 27.811,11.999 30.020,11.999 C32.228,11.999 34.025,13.794 34.025,16.000 C34.025,18.205 32.228,20.000 30.020,20.000 ZM30.020,14.000 C28.915,14.000 28.017,14.897 28.017,16.000 C28.017,17.103 28.915,18.000 30.020,18.000 C31.124,18.000 32.023,17.103 32.023,16.000 C32.023,14.897 31.124,14.000 30.020,14.000 Z" class="cls-1"/>
</svg>
