<svg xmlns="http://www.w3.org/2000/svg" xmlns:xlink="http://www.w3.org/1999/xlink" preserveAspectRatio="xMidYMid" width="90" height="78" viewBox="0 0 60 52">
  <path d="M45.123,43.992 C45.081,43.997 45.040,44.000 44.999,44.000 C44.502,44.000 44.070,43.628 44.008,43.122 C43.940,42.575 44.329,42.074 44.877,42.008 C52.236,41.096 58.000,34.822 58.000,27.726 C58.000,19.856 51.510,13.453 43.533,13.453 C43.241,13.453 42.947,13.470 42.656,13.501 C42.201,13.557 41.762,13.278 41.606,12.842 C39.304,6.357 33.085,1.999 26.133,1.999 C17.091,1.999 9.734,9.258 9.734,18.179 C9.734,18.934 9.800,19.700 9.934,20.519 C10.014,21.006 9.727,21.479 9.257,21.632 C4.916,23.046 2.000,27.029 2.000,31.543 C2.000,37.308 6.755,42.000 12.600,42.000 L15.000,42.000 C15.552,42.000 16.000,42.446 16.000,43.000 C16.000,43.552 15.552,44.000 15.000,44.000 L12.600,44.000 C5.652,44.000 0.000,38.412 0.000,31.543 C0.000,26.441 3.119,21.910 7.844,20.018 C7.770,19.390 7.734,18.782 7.734,18.179 C7.734,8.155 15.988,-0.001 26.133,-0.001 C33.672,-0.001 40.443,4.572 43.220,11.458 C43.325,11.455 43.429,11.453 43.533,11.453 C52.613,11.453 60.000,18.753 60.000,27.726 C60.000,35.813 53.465,42.958 45.123,43.992 ZM22.707,42.293 L29.000,48.585 L29.000,29.000 C29.000,28.447 29.448,28.000 30.000,28.000 C30.552,28.000 31.000,28.447 31.000,29.000 L31.000,48.585 L37.293,42.293 C37.684,41.902 38.316,41.902 38.707,42.293 C39.098,42.683 39.098,43.316 38.707,43.706 L30.709,51.705 C30.616,51.798 30.505,51.872 30.381,51.923 C30.259,51.973 30.130,51.999 30.000,51.999 C29.870,51.999 29.741,51.973 29.619,51.923 C29.495,51.872 29.384,51.798 29.292,51.705 L21.293,43.706 C20.902,43.316 20.902,42.683 21.293,42.293 C21.684,41.902 22.316,41.902 22.707,42.293 Z" class="cls-1"/>
</svg>
