<svg xmlns="http://www.w3.org/2000/svg" xmlns:xlink="http://www.w3.org/1999/xlink" preserveAspectRatio="xMidYMid" width="75.75" height="95.88" viewBox="0 0 37.875 47.94">
  <path d="M32.797,11.784 C32.269,11.877 31.886,12.319 31.886,12.835 L31.886,14.923 C31.886,15.123 31.811,15.299 31.708,15.455 C31.672,15.513 31.644,15.578 31.597,15.628 C31.546,15.675 31.482,15.702 31.423,15.739 C31.266,15.842 31.090,15.916 30.889,15.916 C30.688,15.916 30.511,15.842 30.355,15.739 C30.296,15.703 30.231,15.675 30.181,15.628 C30.134,15.578 30.106,15.513 30.069,15.455 C29.966,15.299 29.892,15.123 29.892,14.923 L29.892,12.835 C29.892,11.354 30.967,10.089 32.449,9.826 C35.272,9.329 35.869,7.466 35.873,5.991 C35.876,4.275 34.793,2.725 33.240,2.219 C31.942,1.800 30.596,1.995 29.545,2.757 C28.514,3.505 27.898,4.707 27.898,5.976 C27.898,6.525 27.452,6.971 26.902,6.971 C26.351,6.971 25.905,6.525 25.905,5.976 C25.905,4.074 26.828,2.270 28.373,1.149 C29.946,0.009 31.944,-0.290 33.856,0.329 C36.222,1.098 37.871,3.427 37.866,5.994 C37.859,9.107 36.011,11.216 32.797,11.784 ZM30.889,19.892 C30.629,19.892 30.370,19.782 30.181,19.604 C30.002,19.415 29.892,19.156 29.892,18.897 C29.892,18.639 30.002,18.381 30.181,18.192 C30.550,17.824 31.227,17.824 31.597,18.192 C31.776,18.381 31.886,18.639 31.886,18.897 C31.886,19.156 31.776,19.415 31.597,19.604 C31.407,19.782 31.148,19.892 30.889,19.892 ZM21.972,2.043 C21.603,2.016 21.233,2.001 20.856,2.001 C12.246,2.001 4.972,8.905 4.972,17.077 L4.972,19.591 C4.972,19.647 4.949,19.695 4.940,19.748 C4.932,19.802 4.938,19.855 4.920,19.908 L2.247,27.819 L5.792,29.023 C6.152,29.145 6.411,29.461 6.459,29.837 L7.705,39.514 C7.815,40.368 8.453,41.066 9.294,41.253 L16.153,42.776 C16.446,42.841 16.694,43.034 16.828,43.302 L17.875,45.940 L32.875,45.940 L29.911,31.631 C29.841,31.278 29.969,30.915 30.244,30.684 C30.284,30.649 34.424,27.052 35.573,20.671 C35.670,20.130 36.188,19.770 36.730,19.869 C37.272,19.966 37.633,20.482 37.535,21.023 C36.473,26.921 33.176,30.611 31.973,31.791 L34.857,46.538 C34.914,46.829 34.838,47.131 34.649,47.360 C34.459,47.589 34.173,47.940 33.875,47.940 L17.875,47.940 C17.497,47.940 16.709,47.510 16.540,47.173 L15.257,44.613 L8.861,43.192 C7.204,42.826 5.944,41.449 5.728,39.767 L4.561,30.704 L0.663,29.380 C0.143,29.204 -0.135,28.640 0.040,28.122 L2.978,19.428 L2.978,17.077 C2.978,7.827 11.165,0.013 20.856,0.013 C21.282,0.013 21.702,0.029 22.120,0.060 C22.669,0.101 23.081,0.578 23.040,1.125 C22.999,1.672 22.524,2.083 21.972,2.043 Z" class="cls-1"/>
</svg>
