<svg xmlns="http://www.w3.org/2000/svg" viewBox="0 0 811.87 193.25"><defs><style>.cls-1{fill:#eb252a;}.cls-2{fill:#337e3e;}</style></defs><title>SwissOrthology</title><g id="Layer_2" data-name="Layer 2"><g id="Layer_1-2" data-name="Layer 1"><g id="Layer_2-2" data-name="Layer 2"><g id="Layer_1-2-2" data-name="Layer 1-2"><path class="cls-1" d="M0,156a20.16,20.16,0,0,1,2.36-7.24A20.67,20.67,0,0,1,6.93,143a47.75,47.75,0,0,0,25.86,8.52,15.23,15.23,0,0,0,9.76-2.87,8.9,8.9,0,0,0,3.57-7.23c0-5-3.37-8.86-9.86-11.68l-15.12-6.4a31.84,31.84,0,0,1-13.46-9.56,21.46,21.46,0,0,1-4.31-13.43A24,24,0,0,1,5.62,89.81,23.11,23.11,0,0,1,12,81.67a31.42,31.42,0,0,1,9.86-5.32,39.51,39.51,0,0,1,12.63-1.92,59.68,59.68,0,0,1,27.67,7,18.29,18.29,0,0,1-6,13.06,54.93,54.93,0,0,0-22.55-6,14,14,0,0,0-9.4,2.8,8.62,8.62,0,0,0-3.36,6.73q0,5.86,9.09,9.66l15,6.74a34.66,34.66,0,0,1,14.21,10.09,22.69,22.69,0,0,1,5,14.48,27.34,27.34,0,0,1-2.06,10.71,21.67,21.67,0,0,1-6.22,8.44,29.62,29.62,0,0,1-10.37,5.53,49,49,0,0,1-14.68,2A55.34,55.34,0,0,1,0,156Z"/><path class="cls-1" d="M80.79,156,68,101a23.65,23.65,0,0,1,9-2A8.42,8.42,0,0,1,83,100.65,9.33,9.33,0,0,1,85.47,106l4.85,23.57q2.59,12.59,3.74,20.63a1,1,0,0,0,1,1.05l8.85-50.77a54.24,54.24,0,0,1,10.1-.77,50.37,50.37,0,0,1,9.73.77l8.82,49.72a1,1,0,0,0,1,1.05q2.32-13.47,4-21.68l6.4-29.46a29.56,29.56,0,0,1,7.51-.67,17.58,17.58,0,0,1,7.74,1.41l.5,1-15.35,61.91a78.36,78.36,0,0,1-10.94.64,18.91,18.91,0,0,1-9.15-1.55,8.87,8.87,0,0,1-3.37-6.53l-2.83-15.75c-1.72-9.83-3.06-18.28-4.11-25.39h-.77q-.87,6.74-4.21,25.25l-4.37,23.33a84.79,84.79,0,0,1-11.15.64,17.82,17.82,0,0,1-9.15-1.68A10.61,10.61,0,0,1,80.79,156Z"/><path class="cls-1" d="M190.91,113.11V163.6a34.58,34.58,0,0,1-4,.51h-8.59a24.37,24.37,0,0,1-4.17-.51V119.14c0-4.68-1.92-7-5.76-7H166.7a21.32,21.32,0,0,1-.77-5.89,22.94,22.94,0,0,1,.77-5.89l5.42-.47c1.68,0,3.1-.17,4.31-.17h2.19a11.55,11.55,0,0,1,9,3.57A14.06,14.06,0,0,1,190.91,113.11ZM171.68,75.44a17.52,17.52,0,0,1,8.49-1.65,21.48,21.48,0,0,1,5.18.51,7.48,7.48,0,0,1,2.86,1.21,4,4,0,0,1,1.18,2.62,31.15,31.15,0,0,1,.24,4c-.24,4.37-.78,6.73-1.59,7.17a31.89,31.89,0,0,1-8,1.27c-4.78,0-7.61-.8-8.41-1.91a12.1,12.1,0,0,1-1.22-6.53A16.93,16.93,0,0,1,171.68,75.44Z"/><path class="cls-1" d="M202.55,159.23a18.52,18.52,0,0,1,1.62-6.2,16.82,16.82,0,0,1,3.37-5.31,38.51,38.51,0,0,0,18,5.52,12.52,12.52,0,0,0,6.73-1.69,5.07,5.07,0,0,0,2.62-4.47c0-3-2.29-5.39-6.9-7.17l-7.17-2.7c-10.77-3.94-16.16-10.1-16.16-18.85a18.78,18.78,0,0,1,1.75-8.25,18.53,18.53,0,0,1,4.85-6.29,22.37,22.37,0,0,1,7.54-4,32.43,32.43,0,0,1,9.73-1.38,39.6,39.6,0,0,1,5.45.37c2,.27,4,.6,6.1,1.08s4,1,5.89,1.61a35.44,35.44,0,0,1,4.85,1.92,18.88,18.88,0,0,1-1.28,6.73,11.12,11.12,0,0,1-3.37,5.12,44.72,44.72,0,0,0-17.57-4.48,7.93,7.93,0,0,0-5.25,1.62,5.07,5.07,0,0,0-1.92,4.14c0,2.66,2.12,4.75,6.39,6.29l7.85,2.8a27.15,27.15,0,0,1,12.52,8.08,18.41,18.41,0,0,1,4.11,11.91,17.74,17.74,0,0,1-6.73,14.55,30.57,30.57,0,0,1-19.5,5.45A45.93,45.93,0,0,1,202.55,159.23Z"/><path class="cls-1" d="M258.8,159.23a18.52,18.52,0,0,1,1.62-6.2,16.82,16.82,0,0,1,3.37-5.31,38.46,38.46,0,0,0,17.81,5.52,12.61,12.61,0,0,0,6.73-1.69,5.07,5.07,0,0,0,2.62-4.47c0-3-2.29-5.39-6.73-7.17l-7.17-2.7c-10.77-3.94-16.16-10.1-16.16-18.85a19.07,19.07,0,0,1,1.69-8.25,18.84,18.84,0,0,1,4.88-6.29,21.92,21.92,0,0,1,7.5-4,32.43,32.43,0,0,1,9.73-1.38,39.85,39.85,0,0,1,5.46.37c2,.27,4,.6,6.09,1.08s4,1,5.89,1.61a36.77,36.77,0,0,1,4.85,1.92,19.61,19.61,0,0,1-1.28,6.73,11.12,11.12,0,0,1-3.37,5.12,44.37,44.37,0,0,0-17.54-4.48,8,8,0,0,0-5.25,1.62,5.13,5.13,0,0,0-1.92,4.14c0,2.66,2.12,4.75,6.4,6.29l7.81,2.8a27.06,27.06,0,0,1,12.56,8.08,18.61,18.61,0,0,1,4.1,11.91,17.68,17.68,0,0,1-6.73,14.55,30.32,30.32,0,0,1-19.46,5.45A45.82,45.82,0,0,1,258.8,159.23Z"/><g id="_Group_" data-name=" Group "><path class="cls-1" d="M188.68,76.58h0l-.16-.47-32.93-48.4L146.74,45,135.26,25.85l-8.85,12.22L110.69,0,84.33,39.82,75.94,28.48,23.77,84.16l37,3.9L75.88,31.21l16.83,34,18-63.62,19.52,53.86,5.18-27.61,19.09,38.35q.92-17.37,1.79-34.74l25.51,43.45Z"/></g></g></g><path class="cls-2" d="M328.46,159.1q-13.69-11.78-13.69-37.61a69.38,69.38,0,0,1,2.37-18.87,41.57,41.57,0,0,1,6.91-14.26,30.85,30.85,0,0,1,11.19-9.09,35,35,0,0,1,15.35-3.19,35.77,35.77,0,0,1,15.29,3.13,29.7,29.7,0,0,1,11.19,9,42.31,42.31,0,0,1,6.84,14.33,70,70,0,0,1,2.37,18.93,69.38,69.38,0,0,1-2.37,18.87,42.4,42.4,0,0,1-6.84,14.26,29.7,29.7,0,0,1-11.19,9,35.77,35.77,0,0,1-15.29,3.13Q337,166.77,328.46,159.1Zm4.61-60.64A49.75,49.75,0,0,0,330,109.34a70.32,70.32,0,0,0-.9,11.38,91.28,91.28,0,0,0,.9,12.86,37.63,37.63,0,0,0,3.32,11.32,20.8,20.8,0,0,0,6.65,8,18.07,18.07,0,0,0,10.75,3q7,0,11.19-3.52a23.26,23.26,0,0,0,6.4-8.76,40.66,40.66,0,0,0,2.94-11.26,95,95,0,0,0,.7-11,96,96,0,0,0-.7-11.13A41.07,41.07,0,0,0,368.37,99a21.68,21.68,0,0,0-6.46-8.64q-4.29-3.45-11.32-3.45A18.69,18.69,0,0,0,339.65,90,18.37,18.37,0,0,0,333.07,98.46Z"/><path class="cls-2" d="M391.14,108.06a11.54,11.54,0,0,1,4.86-7q8.82,1.92,11.64,11.39Q412.76,101,424.4,101a33.78,33.78,0,0,1,6.78.77,23.17,23.17,0,0,1-3.2,12.53,27.58,27.58,0,0,0-5.24-.63q-8.7,0-13.69,9.72v41.7a42.83,42.83,0,0,1-13.18,0V121.23Q395.87,112.53,391.14,108.06Z"/><path class="cls-2" d="M471,101.79a17.57,17.57,0,0,1,.64,5,16.22,16.22,0,0,1-.64,4.86l-15.73-.26v38.14c0,3.74,1.74,5.61,5.24,5.61h8.83a17,17,0,0,1,1,5.76,17.71,17.71,0,0,1-.25,3.82,117.22,117.22,0,0,1-14.33.91q-13.44,0-13.43-13.17V111.51l-9.47.13a21,21,0,0,1-.51-4.8,24.57,24.57,0,0,1,.51-5l9.47.26V90.79q0-4.61,1.53-6.53t5.5-1.92h5l.9.9v18.93Z"/><path class="cls-2" d="M530.19,121.87v29.68q0,7.68,2,11.64a12.31,12.31,0,0,1-7.8,2.82c-2.81,0-4.75-.71-5.82-2.11s-1.6-3.51-1.6-6.32V125.17c0-4.42-.57-7.57-1.73-9.44s-3.13-2.81-5.94-2.81a19.44,19.44,0,0,0-8.64,2.17,26.54,26.54,0,0,0-7.74,5.74v44.28a23.83,23.83,0,0,1-2.94.38c-1.11.09-2.26.13-3.45.13s-2.37,0-3.52-.13a24.09,24.09,0,0,1-3-.38V71.86l.77-.77h5.12q4,0,5.5,1.92T493,79.53v29.81q9.35-8.45,20.21-8.45,8.58,0,12.8,5.7T530.19,121.87Z"/><path class="cls-2" d="M586.86,159.74q-7.05,7-18.55,7a27.85,27.85,0,0,1-11.77-2.36,23.64,23.64,0,0,1-8.64-6.78,31.52,31.52,0,0,1-5.37-10.49,50.88,50.88,0,0,1,0-27.19,31.35,31.35,0,0,1,5.37-10.55,23.64,23.64,0,0,1,8.64-6.78,30.41,30.41,0,0,1,23.54,0,23.61,23.61,0,0,1,8.63,6.78A31,31,0,0,1,594.08,120a46.7,46.7,0,0,1,1.86,13.56Q595.94,150.66,586.86,159.74Zm-18.49-49.38q-13.87,0-13.88,23.15t13.88,23.16q14,0,14-23.16T568.37,110.36Z"/><path class="cls-2" d="M624.72,155.13h4.73a17.29,17.29,0,0,1,1.15,5.7,15.3,15.3,0,0,1-.38,3.88,61.77,61.77,0,0,1-10.87.91q-12.68,0-12.67-13.17V71.86l.9-.77h5q4,0,5.56,2t1.6,6.45v69.86C619.73,153.22,621.39,155.13,624.72,155.13Z"/><path class="cls-2" d="M680.49,159.74q-7,7-18.55,7a27.8,27.8,0,0,1-11.76-2.36,23.48,23.48,0,0,1-8.64-6.78,31.15,31.15,0,0,1-5.37-10.49,50.61,50.61,0,0,1,0-27.19,31,31,0,0,1,5.37-10.55,23.48,23.48,0,0,1,8.64-6.78,30.39,30.39,0,0,1,23.53,0,23.64,23.64,0,0,1,8.64,6.78A31.35,31.35,0,0,1,687.72,120a46.7,46.7,0,0,1,1.86,13.56Q689.58,150.66,680.49,159.74ZM662,110.36q-13.89,0-13.88,23.15T662,156.67q14,0,14-23.16T662,110.36Z"/><path class="cls-2" d="M738.18,106.91A13.52,13.52,0,0,1,747,101a12.4,12.4,0,0,1,3,3.07,10.66,10.66,0,0,1,1.85,3.71c-2.39,2.3-3.58,6.36-3.58,12.15v37.87a73.44,73.44,0,0,1-1.6,16.63,27.55,27.55,0,0,1-4.92,10.94,18.87,18.87,0,0,1-8.45,6A36.28,36.28,0,0,1,721,193.25,59.92,59.92,0,0,1,698.91,189a15.23,15.23,0,0,1,3.46-10,38.77,38.77,0,0,0,17.39,4q9.09,0,12.41-4.67t3.33-13.11v-5.89a25.47,25.47,0,0,1-17.78,6.91q-10.11,0-15.8-8.82t-5.69-24.31a46.39,46.39,0,0,1,1.91-13.88,30.59,30.59,0,0,1,5.38-10.3,24.58,24.58,0,0,1,7.86-6.46,20.57,20.57,0,0,1,9.41-2.24A24.6,24.6,0,0,1,738.18,106.91Zm-2.68,40.78V116.52q-6.4-5.77-12.54-5.78c-4.09,0-7.34,1.93-9.72,5.78s-3.58,9.53-3.58,17.06,1.06,12.92,3.19,16.42,4.91,5.26,8.32,5.26Q729.11,155.26,735.5,147.69Z"/><path class="cls-2" d="M811.87,103.07l-16.89,60a108,108,0,0,1-4.8,13.76,34,34,0,0,1-5.75,9.27,19.67,19.67,0,0,1-7.68,5.24,29.08,29.08,0,0,1-10.3,1.67c-.68,0-1.7-.05-3.07-.13s-2.73-.24-4.09-.45a27.94,27.94,0,0,1-3.58-.77c-1-.3-1.54-.7-1.54-1.21a17.93,17.93,0,0,1,.77-4.86,9.31,9.31,0,0,1,2.18-4.1,27.1,27.1,0,0,0,10,1.67,11.41,11.41,0,0,0,9-3.9c2.3-2.61,4.26-6.59,5.88-12l.39-1.53a12.67,12.67,0,0,1-6.4-1.6,9.06,9.06,0,0,1-3.45-5.31l-16.89-55.9a21.46,21.46,0,0,1,8.06-1.92q5,0,6.65,5.89l8.7,29.42c.43,1.36,1,3.6,1.79,6.71s1.75,7.15,2.94,12.09a1,1,0,0,0,1.15.9L799,101.92a16.81,16.81,0,0,1,2.36-.39c.9-.08,1.9-.12,3-.12a34.69,34.69,0,0,1,3.64.19,18.6,18.6,0,0,1,3.52.7Z"/></g></g></svg>