<svg xmlns="http://www.w3.org/2000/svg" viewBox="0 0 117.43 58.28"><defs><style>.cls-1{fill:#e5e5e5;}.cls-2{fill:#307c3b;}.cls-3{fill:#8c8c8c;}.cls-4{fill:#63c7ce;}.cls-5{fill:#ea2f41;}.cls-6{fill:#265e91;}</style></defs><title>logo-oma-header_1</title><g id="Layer_2" data-name="Layer 2"><g id="Layer_1-2" data-name="Layer 1"><rect class="cls-1" width="117.43" height="58.28" rx="12" ry="12"/><path class="cls-2" d="M76.39,36.43V24.73A12.28,12.28,0,0,0,76.26,23a4.21,4.21,0,0,0-.48-1.44,2.6,2.6,0,0,0-.92-1,2.8,2.8,0,0,0-1.53-.37,3.07,3.07,0,0,0-1.57.39,3.55,3.55,0,0,0-1.12,1A4.48,4.48,0,0,0,70,23.12a6.64,6.64,0,0,0-.22,1.74V36.43H62.71V24.21A5.17,5.17,0,0,0,62,21.29a2.62,2.62,0,0,0-2.33-1.08,3,3,0,0,0-2.6,1.34,5.52,5.52,0,0,0-.92,3.26V36.43H49V15h6.84v3H56a7.44,7.44,0,0,1,1-1.34,6.34,6.34,0,0,1,1.4-1.14,7.6,7.6,0,0,1,1.83-.79,8.57,8.57,0,0,1,6.15.64,6.61,6.61,0,0,1,2.52,2.71,7.6,7.6,0,0,1,6.83-3.65,7.71,7.71,0,0,1,3.68.79,6.79,6.79,0,0,1,2.39,2.07A8.52,8.52,0,0,1,83,20.1a12.37,12.37,0,0,1,.41,3.08V36.43Z"/><path class="cls-2" d="M86,17.93a12.35,12.35,0,0,1,4.41-2.71,15.16,15.16,0,0,1,5.14-.9,13.58,13.58,0,0,1,4.58.67,6.75,6.75,0,0,1,3,2.06,8.75,8.75,0,0,1,1.7,3.53,20.72,20.72,0,0,1,.54,5.05v10.8H98.92V34.15h-.13a5.29,5.29,0,0,1-2.47,2.06,8.81,8.81,0,0,1-3.6.73,10.84,10.84,0,0,1-2.66-.34,7.74,7.74,0,0,1-2.52-1.12,6,6,0,0,1-1.87-2.06,6.35,6.35,0,0,1-.73-3.19,5.4,5.4,0,0,1,1.27-3.74,8.23,8.23,0,0,1,3.27-2.19,17,17,0,0,1,4.45-1A43.4,43.4,0,0,1,98.7,23v-.35a2.62,2.62,0,0,0-1.11-2.34,4.86,4.86,0,0,0-2.76-.75,6.84,6.84,0,0,0-2.9.64,9.38,9.38,0,0,0-2.39,1.55Zm13,9.16H98c-.78,0-1.56,0-2.35.11a9.63,9.63,0,0,0-2.11.41,4,4,0,0,0-1.52.88A2,2,0,0,0,91.43,30a1.89,1.89,0,0,0,.28,1,2.22,2.22,0,0,0,.71.69,3.33,3.33,0,0,0,1,.37,5.79,5.79,0,0,0,1.08.1A4.36,4.36,0,0,0,97.78,31a4.43,4.43,0,0,0,1.14-3.2Z"/><path class="cls-3" d="M49.19,46.36V38.54a.47.47,0,0,1,.26-.41A1.28,1.28,0,0,1,50.1,38a1.39,1.39,0,0,1,.68.16.46.46,0,0,1,.27.41v3.53a1.8,1.8,0,0,1,.61-.65,1.57,1.57,0,0,1,.91-.27,1.87,1.87,0,0,1,1.5.75,2.65,2.65,0,0,1,.63,1.77v.84a2.71,2.71,0,0,1-.63,1.78,1.87,1.87,0,0,1-1.46.77,1.92,1.92,0,0,1-1-.29,1.65,1.65,0,0,1-.66-.68v.27a.5.5,0,0,1-.25.4.93.93,0,0,1-.58.18,1.15,1.15,0,0,1-.65-.18A.49.49,0,0,1,49.19,46.36Zm1.86-1.69a.8.8,0,0,0,.29.47.88.88,0,0,0,.63.29.81.81,0,0,0,.61-.28.93.93,0,0,0,.26-.64v-.83a.89.89,0,0,0-.26-.62.83.83,0,0,0-.62-.27.92.92,0,0,0-.63.25.8.8,0,0,0-.28.64Z"/><path class="cls-3" d="M55.57,46.36V41.79a.48.48,0,0,1,.26-.41,1.29,1.29,0,0,1,.66-.15,1.06,1.06,0,0,1,.58.15.48.48,0,0,1,.24.41v.45a2.07,2.07,0,0,1,.6-.76,1.29,1.29,0,0,1,.83-.33h.35a.56.56,0,0,1,.46.25.87.87,0,0,1,.2.56.89.89,0,0,1-.2.58.56.56,0,0,1-.46.25h-.35a1.14,1.14,0,0,0-.91.49,2,2,0,0,0-.4,1.29v1.79a.49.49,0,0,1-.28.4,1.21,1.21,0,0,1-.66.18,1.11,1.11,0,0,1-.65-.18A.48.48,0,0,1,55.57,46.36Z"/><path class="cls-3" d="M60.09,44.51v-.84a2.33,2.33,0,0,1,.8-1.77,2.83,2.83,0,0,1,3.84,0,2.33,2.33,0,0,1,.82,1.77v.84a2.36,2.36,0,0,1-.83,1.78,2.75,2.75,0,0,1-3.82,0A2.37,2.37,0,0,1,60.09,44.51Zm1.86,0a.92.92,0,0,0,.25.64.81.81,0,0,0,.61.28.84.84,0,0,0,.62-.28.93.93,0,0,0,.26-.64v-.83a.86.86,0,0,0-.27-.62.82.82,0,0,0-.61-.27.84.84,0,0,0-.61.27.88.88,0,0,0-.25.62Z"/><path class="cls-3" d="M65.89,41.9c0-.2.14-.38.42-.52a1.66,1.66,0,0,1,.81-.23c.28,0,.45.1.51.29l1.07,3.05.77-2.58c.07-.24.28-.36.61-.36s.54.12.61.36l.77,2.58,1.07-3.05c.06-.19.23-.29.5-.29a1.66,1.66,0,0,1,.81.23q.42.23.42.54a.52.52,0,0,1-.05.23l-1.85,4.62c-.09.22-.33.32-.72.32s-.69-.1-.77-.32l-.79-2.09-.79,2.09c-.08.22-.34.32-.78.32s-.62-.1-.71-.32L66,42.15A.74.74,0,0,1,65.89,41.9Z"/><path class="cls-3" d="M74.55,46a1,1,0,0,1,.18-.53.5.5,0,0,1,.43-.28.76.76,0,0,1,.35.12l.53.24a2.09,2.09,0,0,0,.74.12c.49,0,.74-.13.74-.38s-.09-.25-.29-.34a3.19,3.19,0,0,0-.7-.23,7,7,0,0,1-.83-.24,1.65,1.65,0,0,1-.7-.5,1.34,1.34,0,0,1-.29-.89,1.82,1.82,0,0,1,.54-1.33A2.32,2.32,0,0,1,77,41.15a3.87,3.87,0,0,1,1.42.25c.41.16.62.37.62.62a1.13,1.13,0,0,1-.19.56.56.56,0,0,1-.48.31,2.27,2.27,0,0,1-.55-.15,2.49,2.49,0,0,0-.8-.15,1,1,0,0,0-.51.11.33.33,0,0,0-.17.26c0,.12.1.21.29.28a6.32,6.32,0,0,0,.71.2,6.61,6.61,0,0,1,.83.26,1.59,1.59,0,0,1,.71.53,1.5,1.5,0,0,1,.29.94,1.69,1.69,0,0,1-.6,1.38,2.6,2.6,0,0,1-1.71.51,3.61,3.61,0,0,1-1.61-.33C74.77,46.51,74.55,46.25,74.55,46Z"/><path class="cls-3" d="M79.77,44.51v-.87a2.27,2.27,0,0,1,.81-1.75,2.8,2.8,0,0,1,2-.74,2.71,2.71,0,0,1,1.82.65,2.07,2.07,0,0,1,.76,1.64,1.74,1.74,0,0,1-.1.62.62.62,0,0,1-.29.34,1.46,1.46,0,0,1-.35.12,2.46,2.46,0,0,1-.43,0H81.63v.07a.92.92,0,0,0,.33.73,1.39,1.39,0,0,0,.89.27,2,2,0,0,0,.88-.23,2,2,0,0,1,.62-.23.59.59,0,0,1,.49.28A1,1,0,0,1,85,46c0,.25-.21.49-.64.72a3.22,3.22,0,0,1-1.59.36,3.38,3.38,0,0,1-2.19-.7A2.3,2.3,0,0,1,79.77,44.51Zm1.86-1h1.48a.23.23,0,0,0,.26-.26.54.54,0,0,0-.26-.48,1.05,1.05,0,0,0-.62-.18,1.07,1.07,0,0,0-.61.18.53.53,0,0,0-.25.48Z"/><path class="cls-3" d="M85.93,46.36V41.79a.48.48,0,0,1,.26-.41,1.29,1.29,0,0,1,.66-.15,1.06,1.06,0,0,1,.58.15.48.48,0,0,1,.24.41v.45a2.07,2.07,0,0,1,.6-.76,1.29,1.29,0,0,1,.83-.33h.35a.56.56,0,0,1,.46.25.87.87,0,0,1,.2.56.89.89,0,0,1-.2.58.56.56,0,0,1-.46.25H89.1a1.14,1.14,0,0,0-.91.49,2,2,0,0,0-.4,1.29v1.79a.49.49,0,0,1-.28.4,1.21,1.21,0,0,1-.66.18,1.11,1.11,0,0,1-.65-.18A.48.48,0,0,1,85.93,46.36Z"/><path class="cls-2" d="M34.23,11.78A17.83,17.83,0,0,0,11.37,22.44l5.21,1.89a12.1,12.1,0,0,1,2.86-4.48A12.32,12.32,0,1,1,30.27,40.7l.95,5.4A17.38,17.38,0,0,0,44.89,34.64,17.83,17.83,0,0,0,34.23,11.78"/><path class="cls-4" d="M16.58,24.33l-5.21-1.89a17.1,17.1,0,0,0,0,12.2l5.19-1.89a12.37,12.37,0,0,1,0-8.42"/><path class="cls-5" d="M19.44,37.27a12.22,12.22,0,0,1-2.88-4.52l-5.19,1.89A17.07,17.07,0,0,0,19.21,44L22,39.22a12.26,12.26,0,0,1-2.52-1.95"/><path class="cls-6" d="M22,39.22,19.21,44a17.1,17.1,0,0,0,12,2.12l-.95-5.4A12.37,12.37,0,0,1,22,39.22"/><path class="cls-2" d="M34.74,10.38A19.32,19.32,0,0,0,10,21.91L15.62,24A13.34,13.34,0,1,1,30.45,41.69l1,5.85a18.85,18.85,0,0,0,14.8-12.41A19.31,19.31,0,0,0,34.74,10.38"/><path class="cls-4" d="M15.62,24,10,21.91a18.56,18.56,0,0,0,0,13.21l5.62-2a13.39,13.39,0,0,1,0-9.11"/><path class="cls-5" d="M18.72,38a13.24,13.24,0,0,1-3.12-4.9l-5.62,2a18.56,18.56,0,0,0,8.49,10.13l3-5.16A13.05,13.05,0,0,1,18.72,38"/><path class="cls-6" d="M21.45,40.09l-3,5.16a18.51,18.51,0,0,0,13,2.29l-1-5.85a13.36,13.36,0,0,1-9-1.6"/></g></g></svg>