<svg xmlns="http://www.w3.org/2000/svg" viewBox="0 0 387.26 190.04"><defs><style>.cls-1{fill:none;}.cls-2{fill:#317d3d;}.cls-3{fill:#8a8a8a;}.cls-4{fill:#ee3a39;}.cls-5{fill:#64c7cd;}.cls-6{fill:#369;}</style></defs><g id="Layer_2" data-name="Layer 2"><g id="Layer_1-2" data-name="Layer 1"><path class="cls-1" d="M212,149.09a2.24,2.24,0,0,0-1.67.75,2.43,2.43,0,0,0-.71,1.7v2.29a2.5,2.5,0,0,0,.7,1.75,2.18,2.18,0,0,0,1.68.77,2.24,2.24,0,0,0,1.7-.77,2.51,2.51,0,0,0,.71-1.75v-2.29a2.37,2.37,0,0,0-.73-1.7A2.26,2.26,0,0,0,212,149.09Z"/><path class="cls-1" d="M268.51,150.35a1.51,1.51,0,0,0-.71-1.31,3,3,0,0,0-1.7-.48,2.93,2.93,0,0,0-1.67.48,1.51,1.51,0,0,0-.71,1.31v.72h4.09A.63.63,0,0,0,268.51,150.35Z"/><path class="cls-1" d="M52.19,110.5v0a46.64,46.64,0,0,0,20.37,24.41l-1.9,3.29h0l1.9-3.29a46.54,46.54,0,0,0,31.35,5.59h0A46.48,46.48,0,1,0,52.26,78.77L32.63,71.56l19.63,7.21A46.62,46.62,0,0,0,52.19,110.5Z"/><path class="cls-1" d="M178.94,101.83c1.11,4,3.21,6.65,5.64,6.65,3.57,0,6.46-5.8,6.46-13s-2.89-13-6.46-13c-2.41,0-4.5,2.65-5.61,6.56A2.67,2.67,0,0,1,176.48,91l-1.79,0v8.78l1.74,0A2.66,2.66,0,0,1,178.94,101.83Z"/><path class="cls-1" d="M182.38,149.09a2.52,2.52,0,0,0-1.73.69,2.22,2.22,0,0,0-.78,1.76v2.72a2.14,2.14,0,0,0,.79,1.31,2.45,2.45,0,0,0,1.75.78,2.22,2.22,0,0,0,1.67-.77,2.51,2.51,0,0,0,.71-1.75v-2.29a2.43,2.43,0,0,0-.71-1.7A2.27,2.27,0,0,0,182.38,149.09Z"/><path class="cls-1" d="M350.67,97.14a36.86,36.86,0,0,0-8,1.54A14.83,14.83,0,0,0,337,102a7.65,7.65,0,0,0-2.27,5.76,6.94,6.94,0,0,0,1.06,3.9,8.15,8.15,0,0,0,2.67,2.59,11.33,11.33,0,0,0,3.74,1.38,21.4,21.4,0,0,0,4.05.41q8.12,0,12.42-4.46t4.3-12.1V96.74h-3.41Q355.13,96.74,350.67,97.14Z"/><path class="cls-2" d="M385.23,72.15a33.21,33.21,0,0,0-6.41-13.31,25.8,25.8,0,0,0-11.44-7.79,51.75,51.75,0,0,0-17.28-2.51,57.12,57.12,0,0,0-19.4,3.4,46.71,46.71,0,0,0-16.63,10.23l13.47,14.44a34.92,34.92,0,0,1,9-5.84,25.85,25.85,0,0,1,10.95-2.44,18.24,18.24,0,0,1,10.39,2.84Q362.11,74,362.11,80v1.3a172,172,0,0,0-18,1,65.28,65.28,0,0,0-16.79,3.9A31.34,31.34,0,0,0,315,94.46q-4.79,5.36-4.78,14.12a24,24,0,0,0,2.75,12,22.92,22.92,0,0,0,7.06,7.79,29.29,29.29,0,0,0,9.5,4.22,41.16,41.16,0,0,0,10.06,1.3,33.13,33.13,0,0,0,13.55-2.76,20,20,0,0,0,9.33-7.79h.49V132h24.34V91.22A78.21,78.21,0,0,0,385.23,72.15ZM362.92,99.49q0,7.64-4.3,12.1t-12.42,4.46a21.4,21.4,0,0,1-4.05-.41,11.33,11.33,0,0,1-3.74-1.38,8.15,8.15,0,0,1-2.67-2.59,6.94,6.94,0,0,1-1.06-3.9A7.65,7.65,0,0,1,337,102a14.83,14.83,0,0,1,5.76-3.33,36.86,36.86,0,0,1,8-1.54q4.45-.4,8.84-.4h3.41Z"/><path class="cls-3" d="M184.06,144.6a4.51,4.51,0,0,0-2.52.73,4.85,4.85,0,0,0-1.67,1.8v-9.72a1.26,1.26,0,0,0-.74-1.12,3.67,3.67,0,0,0-1.87-.43,3.43,3.43,0,0,0-1.8.43,1.26,1.26,0,0,0-.7,1.12v21.52a1.35,1.35,0,0,0,.72,1.1,3.15,3.15,0,0,0,1.78.48,2.63,2.63,0,0,0,1.6-.5,1.39,1.39,0,0,0,.68-1.1v-.73a4.53,4.53,0,0,0,1.82,1.88,5.28,5.28,0,0,0,2.8.78,5.12,5.12,0,0,0,4-2.11,7.52,7.52,0,0,0,1.73-4.89v-2.31a7.36,7.36,0,0,0-1.71-4.88A5.21,5.21,0,0,0,184.06,144.6Zm.73,9.23a2.51,2.51,0,0,1-.71,1.75,2.22,2.22,0,0,1-1.67.77,2.45,2.45,0,0,1-1.75-.78,2.14,2.14,0,0,1-.79-1.31v-2.72a2.22,2.22,0,0,1,.78-1.76,2.52,2.52,0,0,1,1.73-.69,2.27,2.27,0,0,1,1.7.75,2.43,2.43,0,0,1,.71,1.7Z"/><path class="cls-3" d="M202,144.6h-1a3.6,3.6,0,0,0-2.29.9,5.59,5.59,0,0,0-1.63,2.09v-1.23a1.31,1.31,0,0,0-.66-1.13,2.88,2.88,0,0,0-1.62-.43,3.38,3.38,0,0,0-1.8.43,1.29,1.29,0,0,0-.71,1.12v12.57A1.34,1.34,0,0,0,193,160a3.13,3.13,0,0,0,1.78.48,3.43,3.43,0,0,0,1.83-.49,1.37,1.37,0,0,0,.78-1.09V154a5.47,5.47,0,0,1,1.09-3.53,3.16,3.16,0,0,1,2.5-1.37h1a1.61,1.61,0,0,0,1.27-.66,2.48,2.48,0,0,0,.55-1.6,2.4,2.4,0,0,0-.55-1.56A1.59,1.59,0,0,0,202,144.6Z"/><path class="cls-3" d="M217.26,146.65A7.57,7.57,0,0,0,212,144.6a7.48,7.48,0,0,0-5.28,2.06,6.47,6.47,0,0,0-2.21,4.87v2.31a6.55,6.55,0,0,0,2.24,4.89,7.6,7.6,0,0,0,10.51,0,6.51,6.51,0,0,0,2.26-4.89v-2.31A6.36,6.36,0,0,0,217.26,146.65Zm-2.87,7.18a2.51,2.51,0,0,1-.71,1.75,2.24,2.24,0,0,1-1.7.77,2.18,2.18,0,0,1-1.68-.77,2.5,2.5,0,0,1-.7-1.75v-2.29a2.43,2.43,0,0,1,.71-1.7,2.25,2.25,0,0,1,3.35,0,2.37,2.37,0,0,1,.73,1.7Z"/><path class="cls-3" d="M242.32,145.23a4.58,4.58,0,0,0-2.22-.63c-.75,0-1.21.27-1.39.79l-2.94,8.39-2.11-7.1q-.3-1-1.68-1c-.93,0-1.49.33-1.69,1l-2.11,7.1-2.94-8.39c-.17-.52-.64-.79-1.41-.79a4.78,4.78,0,0,0-2.23.61q-1.14.61-1.14,1.44a2.07,2.07,0,0,0,.17.69l5.08,12.71c.24.59.89.89,1.94.89,1.21,0,1.93-.3,2.15-.89L232,154.3l2.18,5.75c.21.59.92.89,2.11.89s1.73-.3,2-.89l5.08-12.71a1.34,1.34,0,0,0,.13-.63C243.46,146.14,243.08,145.65,242.32,145.23Z"/><path class="cls-3" d="M254.14,151.59a22.05,22.05,0,0,0-2.28-.7,17.24,17.24,0,0,1-2-.55c-.54-.19-.81-.44-.81-.76a.86.86,0,0,1,.48-.72,2.69,2.69,0,0,1,1.41-.3,6.53,6.53,0,0,1,2.17.42,6.74,6.74,0,0,0,1.52.41,1.52,1.52,0,0,0,1.32-.88,3.08,3.08,0,0,0,.53-1.53c0-.68-.57-1.25-1.7-1.7a10.54,10.54,0,0,0-3.91-.68q-3.24,0-4.72,1.52a5.06,5.06,0,0,0-1.48,3.68,3.65,3.65,0,0,0,.79,2.44,4.46,4.46,0,0,0,1.93,1.37,20.08,20.08,0,0,0,2.27.67,9.47,9.47,0,0,1,1.94.61c.52.25.79.56.79.94,0,.7-.68,1-2.05,1a5.5,5.5,0,0,1-2-.34,10.15,10.15,0,0,1-1.45-.66,2.18,2.18,0,0,0-1-.32,1.41,1.41,0,0,0-1.19.77,2.78,2.78,0,0,0-.5,1.47c0,.82.62,1.53,1.85,2.13a9.88,9.88,0,0,0,4.42.91,7.13,7.13,0,0,0,4.71-1.39,4.68,4.68,0,0,0,1.66-3.81,4.07,4.07,0,0,0-.81-2.59A4.51,4.51,0,0,0,254.14,151.59Z"/><path class="cls-3" d="M270.09,153.94a7.12,7.12,0,0,0,1.17-.08,4.25,4.25,0,0,0,1-.34,1.73,1.73,0,0,0,.79-.92,4.81,4.81,0,0,0,.26-1.71,5.67,5.67,0,0,0-2.08-4.52,7.45,7.45,0,0,0-5-1.77,7.72,7.72,0,0,0-5.37,2,6.27,6.27,0,0,0-2.22,4.81v2.41a6.27,6.27,0,0,0,2.32,5.07,9.18,9.18,0,0,0,6,1.93,9,9,0,0,0,4.37-1c1.18-.64,1.76-1.31,1.76-2a2.66,2.66,0,0,0-.52-1.47,1.6,1.6,0,0,0-1.36-.78,5.2,5.2,0,0,0-1.7.63,5.42,5.42,0,0,1-2.42.63,3.74,3.74,0,0,1-2.44-.75,2.44,2.44,0,0,1-.93-2v-.2Zm-6.37-3.59a1.51,1.51,0,0,1,.71-1.31,2.93,2.93,0,0,1,1.67-.48,3,3,0,0,1,1.7.48,1.51,1.51,0,0,1,.71,1.31.63.63,0,0,1-.7.72h-4.09Z"/><path class="cls-3" d="M285.24,144.6h-1a3.58,3.58,0,0,0-2.29.9,5.73,5.73,0,0,0-1.64,2.09v-1.23a1.31,1.31,0,0,0-.66-1.13,2.87,2.87,0,0,0-1.61-.43,3.38,3.38,0,0,0-1.8.43,1.27,1.27,0,0,0-.71,1.12v12.57a1.35,1.35,0,0,0,.72,1.11,3.19,3.19,0,0,0,1.79.48,3.43,3.43,0,0,0,1.83-.49,1.38,1.38,0,0,0,.77-1.09V154a5.53,5.53,0,0,1,1.09-3.53,3.17,3.17,0,0,1,2.51-1.37h1a1.61,1.61,0,0,0,1.27-.66,2.48,2.48,0,0,0,.54-1.6,2.39,2.39,0,0,0-.54-1.56A1.59,1.59,0,0,0,285.24,144.6Z"/><path class="cls-2" d="M298,59.65a25.9,25.9,0,0,0-9-7.79q-5.61-3-13.88-3-9.09,0-15.42,3.73a30.71,30.71,0,0,0-10.38,10.06,24.48,24.48,0,0,0-9.5-10.22q-6.07-3.57-14.85-3.57A29.15,29.15,0,0,0,209.75,53a23.06,23.06,0,0,0-5.28,4.3,28.48,28.48,0,0,0-3.65,5h-.32V51.13H174.69V91.08l1.79,0A2.67,2.67,0,0,0,179,89.12c1.11-3.91,3.2-6.56,5.61-6.56,3.57,0,6.46,5.8,6.46,13s-2.89,13-6.46,13c-2.43,0-4.53-2.69-5.64-6.65a2.66,2.66,0,0,0-2.51-1.93l-1.74,0V132h26.78V88.13A21.08,21.08,0,0,1,205,75.8a11.28,11.28,0,0,1,9.82-5q6,0,8.76,4.06t2.76,11V132h26.62V88.3a26.42,26.42,0,0,1,.81-6.58,17.21,17.21,0,0,1,2.51-5.6,13.27,13.27,0,0,1,4.22-3.89,11.66,11.66,0,0,1,5.93-1.46,10.68,10.68,0,0,1,5.76,1.38,10.35,10.35,0,0,1,3.49,3.65,15.76,15.76,0,0,1,1.78,5.44,42.48,42.48,0,0,1,.49,6.57V132h26.62V82A45.91,45.91,0,0,0,303,70.36,32.19,32.19,0,0,0,298,59.65Z"/><path class="cls-1" d="M52.19,110.5v0a46.64,46.64,0,0,0,20.37,24.41l-1.9,3.29h0l1.9-3.29a46.54,46.54,0,0,0,31.35,5.59h0A46.48,46.48,0,1,0,52.26,78.77L32.63,71.56l19.63,7.21A46.62,46.62,0,0,0,52.19,110.5Z"/><path class="cls-4" d="M70.66,138.22l1.9-3.29a46.64,46.64,0,0,1-20.37-24.41v0l-19.61,7.07-5.21,1.9h0a71.49,71.49,0,0,0,14.23,24L34.67,150a2.65,2.65,0,0,1-3.11.41c-3.56-2-6.91-2.37-8.61-.67-2.52,2.53-.46,8.67,4.6,13.73s11.2,7.12,13.73,4.6c1.71-1.72,1.3-5.11-.72-8.69a2.65,2.65,0,0,1,.42-3.14l6.61-6.93a77.88,77.88,0,0,0,11.8,8.35l2.77-4.78h0l8.48-14.69Z"/><path class="cls-5" d="M52.19,110.52v0a46.62,46.62,0,0,1,.07-31.73L32.63,71.56l-5.25-1.91a73.37,73.37,0,0,0-4.5,21.63L14.56,91a2.66,2.66,0,0,1-2.49-1.91c-1.11-3.91-3.2-6.56-5.61-6.56-3.57,0-6.46,5.8-6.46,13s2.89,13,6.46,13c2.42,0,4.53-2.69,5.64-6.65a2.66,2.66,0,0,1,2.51-1.93L23,99.7a74.2,74.2,0,0,0,4.37,19.79l5.21-1.9Z"/><path class="cls-6" d="M108.48,166.34l-1-5.43-1.69-9.58-1.24-7.07h0l-.66-3.74h0a46.54,46.54,0,0,1-31.35-5.59l-1.9,3.29h0L62.16,152.9l-2.76,4.78a70.36,70.36,0,0,0,31.87,9.76l-.24,8A2.67,2.67,0,0,1,89.12,178c-3.91,1.11-6.56,3.2-6.56,5.61,0,3.57,5.8,6.46,13,6.46s13-2.89,13-6.46c0-2.43-2.69-4.53-6.65-5.64a2.66,2.66,0,0,1-1.93-2.51q-.09-4-.19-8a79.09,79.09,0,0,0,8.76-1h0Z"/><path class="cls-2" d="M168.52,99.72l6.17.14V91.08l-6.05.19a73.18,73.18,0,0,0-18.1-44.83L156.26,41a2.65,2.65,0,0,1,3.14-.42c3.58,2,7,2.43,8.69.72,2.52-2.53.46-8.67-4.6-13.73s-11.2-7.12-13.73-4.6c-1.7,1.7-1.31,5.05.67,8.61a2.65,2.65,0,0,1-.41,3.11l-5.43,5.77A73,73,0,0,0,99.73,21.82l.17-7.21a2.66,2.66,0,0,1,1.93-2.51c4-1.11,6.65-3.22,6.65-5.64,0-3.57-5.8-6.46-13-6.46s-13,2.89-13,6.46c0,2.41,2.65,4.5,6.56,5.61A2.66,2.66,0,0,1,91,14.56l.22,7.31A73.11,73.11,0,0,0,46.71,40.79l-5.73-6a2.65,2.65,0,0,1-.42-3.14c2-3.59,2.43-7,.72-8.69-2.53-2.52-8.67-.46-13.73,4.6S20.43,38.75,23,41.28c1.7,1.7,5.05,1.31,8.61-.68a2.67,2.67,0,0,1,3.11.42l6.16,5.8A72.43,72.43,0,0,0,27.38,69.65l5.25,1.91h0l19.63,7.21a46.49,46.49,0,1,1,51.65,61.75l.66,3.74h0l1.24,7.07,1.69,9.58,1,5.43h0a72.37,72.37,0,0,0,35.34-16.56l6.2,6.58a2.65,2.65,0,0,1,.41,3.11c-2,3.56-2.37,6.91-.67,8.61,2.53,2.52,8.67.46,13.73-4.6s7.12-11.2,4.6-13.73c-1.72-1.71-5.11-1.3-8.69.72a2.65,2.65,0,0,1-3.14-.42l-6.45-6.15a74.06,74.06,0,0,0,14.49-24.39A72.46,72.46,0,0,0,168.52,99.72Z"/></g></g></svg>