<?xml version="1.0" encoding="UTF-8" standalone="no"?>
<svg
   viewBox="0 0 655.5637 147.12025"
   version="1.1"
   id="svg82"
   sodipodi:docname="logo-omamo.svg"
   width="655.56372"
   height="147.12025"
   inkscape:version="1.1 (c4e8f9e, 2021-05-24)"
   xmlns:inkscape="http://www.inkscape.org/namespaces/inkscape"
   xmlns:sodipodi="http://sodipodi.sourceforge.net/DTD/sodipodi-0.dtd"
   xmlns="http://www.w3.org/2000/svg"
   xmlns:svg="http://www.w3.org/2000/svg"
   xmlns:rdf="http://www.w3.org/1999/02/22-rdf-syntax-ns#"
   xmlns:cc="http://creativecommons.org/ns#"
   xmlns:dc="http://purl.org/dc/elements/1.1/">
  <sodipodi:namedview
     id="namedview84"
     pagecolor="#ffffff"
     bordercolor="#666666"
     borderopacity="1.0"
     inkscape:pageshadow="2"
     inkscape:pageopacity="0.0"
     inkscape:pagecheckerboard="0"
     showgrid="false"
     fit-margin-top="0"
     fit-margin-left="0"
     fit-margin-right="0"
     fit-margin-bottom="0"
     inkscape:zoom="1.8734612"
     inkscape:cx="-41.367283"
     inkscape:cy="-4.0032855"
     inkscape:window-width="1280"
     inkscape:window-height="755"
     inkscape:window-x="0"
     inkscape:window-y="663"
     inkscape:window-maximized="0"
     inkscape:current-layer="Layer_1-2" />
  <defs
     id="defs4">
    <style
       id="style2">.cls-1{fill:#307c3b;}.cls-2,.cls-3{fill:#8c8c8c;}.cls-3{stroke:#8c8c8c;stroke-miterlimit:10;}.cls-4{fill:none;}.cls-5{fill:#317d3d;}.cls-6{fill:#ee3a39;}.cls-7{fill:#64c7cd;}.cls-8{fill:#369;}.cls-9{fill:#8a8a8a;}</style>
  </defs>
  <title
     id="title6">logo-oma_2</title>
  <g
     id="Layer_2"
     data-name="Layer 2"
     transform="translate(-0.00592142,-0.02208368)">
    <g
       id="Layer_1-2"
       data-name="Layer 1">
      <path
         class="cls-4"
         d="M 29.46,57.07 A 46.65,46.65 0 0 0 29.4,88.81 v 0 a 46.52,46.52 0 0 0 20.37,24.41 l -1.9,3.29 v 0 l 1.9,-3.29 a 46.48,46.48 0 0 0 31.35,5.59 v 0 A 46.48,46.48 0 1 0 29.46,57.07 l -3.62,-1.32 v 0 z"
         id="path44" />
      <path
         class="cls-4"
         d="m 244.81,128.53 a 1.47,1.47 0 0 0 -0.69,-1.29 3,3 0 0 0 -1.68,-0.47 2.92,2.92 0 0 0 -1.64,0.47 1.47,1.47 0 0 0 -0.69,1.29 v 0.71 h 4 c 0.48,0 0.7,-0.24 0.7,-0.71 z"
         id="path46" />
      <path
         class="cls-4"
         d="m 327.87,75.43 a 36.86,36.86 0 0 0 -7.95,1.57 14.69,14.69 0 0 0 -5.76,3.32 7.67,7.67 0 0 0 -2.27,5.76 6.94,6.94 0 0 0 1.11,3.92 8.18,8.18 0 0 0 2.67,2.6 11.33,11.33 0 0 0 3.74,1.38 21.36,21.36 0 0 0 4.05,0.4 q 8.11,0 12.42,-4.46 4.31,-4.46 4.3,-12.09 V 75 h -3.41 c -2.97,0 -5.92,0.17 -8.9,0.43 z"
         id="path48" />
      <path
         class="cls-5"
         d="m 275.24,38 a 25.79,25.79 0 0 0 -9,-7.79 29.14,29.14 0 0 0 -13.88,-3 q -9.09,0 -15.42,3.74 A 30.71,30.71 0 0 0 226.56,41 a 24.51,24.51 0 0 0 -9.5,-10.23 32.12,32.12 0 0 0 -23.2,-2.43 29.6,29.6 0 0 0 -6.9,3 23.32,23.32 0 0 0 -5.28,4.3 28.85,28.85 0 0 0 -3.65,5 h -0.32 V 29.43 H 151.9 v 80.82 h 26.78 V 66.43 a 21.12,21.12 0 0 1 3.49,-12.34 11.28,11.28 0 0 1 9.82,-5 q 6,0 8.76,4.06 2.76,4.06 2.76,11 v 46.09 h 26.62 V 66.59 a 26.4,26.4 0 0 1 0.81,-6.57 17.12,17.12 0 0 1 2.51,-5.6 13.42,13.42 0 0 1 4.22,-3.9 11.66,11.66 0 0 1 5.93,-1.46 10.68,10.68 0 0 1 5.76,1.38 10.35,10.35 0 0 1 3.49,3.65 15.76,15.76 0 0 1 1.78,5.44 42.48,42.48 0 0 1 0.49,6.57 v 44.15 h 26.62 v -50 A 45.84,45.84 0 0 0 280.19,48.65 32.19,32.19 0 0 0 275.24,38 Z"
         id="path50" />
      <path
         class="cls-5"
         d="m 495.18666,39.202118 a 25.79,25.79 0 0 0 -9,-7.79 29.14,29.14 0 0 0 -13.88,-3 q -9.09,0 -15.42,3.74 a 30.71,30.71 0 0 0 -10.38,10.05 24.51,24.51 0 0 0 -9.5,-10.23 32.12,32.12 0 0 0 -23.2,-2.43 29.6,29.6 0 0 0 -6.9,3 23.32,23.32 0 0 0 -5.28,4.3 28.85,28.85 0 0 0 -3.65,5 h -0.32 v -11.21 h -25.81 v 80.820002 h 26.78 V 67.632118 a 21.12,21.12 0 0 1 3.49,-12.34 11.28,11.28 0 0 1 9.82,-5 q 6,0 8.76,4.06 2.76,4.06 2.76,11 v 46.090002 h 26.62 V 67.792118 a 26.4,26.4 0 0 1 0.81,-6.57 17.12,17.12 0 0 1 2.51,-5.6 13.42,13.42 0 0 1 4.22,-3.9 11.66,11.66 0 0 1 5.93,-1.46 10.68,10.68 0 0 1 5.76,1.38 10.35,10.35 0 0 1 3.49,3.65 15.76,15.76 0 0 1 1.78,5.44 42.48,42.48 0 0 1 0.49,6.57 v 44.150002 h 26.62 V 61.452118 a 45.84,45.84 0 0 0 -1.55,-11.6 32.19,32.19 0 0 0 -4.95,-10.65 z"
         id="path50-3"
         style="fill:#317d3d" />
      <path
         class="cls-5"
         d="M 362.44,50.44 A 33.28,33.28 0 0 0 356,37.13 a 25.8,25.8 0 0 0 -11.44,-7.79 52,52 0 0 0 -17.28,-2.51 57.09,57.09 0 0 0 -19.4,3.41 46.6,46.6 0 0 0 -16.63,10.22 l 13.47,14.45 a 34.94,34.94 0 0 1 9,-5.85 25.84,25.84 0 0 1 10.95,-2.43 18.24,18.24 0 0 1 10.39,2.84 q 4.22,2.84 4.22,8.84 v 1.3 a 172,172 0 0 0 -18,1 64.87,64.87 0 0 0 -16.79,3.89 31.47,31.47 0 0 0 -12.34,8.28 q -4.79,5.35 -4.79,14.12 a 24.05,24.05 0 0 0 2.76,12 22.91,22.91 0 0 0 7.06,7.79 29.48,29.48 0 0 0 9.5,4.21 41.16,41.16 0 0 0 10.06,1.3 33.16,33.16 0 0 0 13.55,-2.76 19.93,19.93 0 0 0 9.33,-7.79 h 0.49 v 8.61 h 24.34 V 69.51 a 78.83,78.83 0 0 0 -2.01,-19.07 z m -22.31,27.35 q 0,7.62 -4.3,12.09 -4.3,4.47 -12.42,4.46 a 21.36,21.36 0 0 1 -4.05,-0.4 11.33,11.33 0 0 1 -3.74,-1.38 A 8.18,8.18 0 0 1 313,90 a 6.94,6.94 0 0 1 -1.06,-3.9 7.67,7.67 0 0 1 2.27,-5.76 14.69,14.69 0 0 1 5.71,-3.34 36.86,36.86 0 0 1 7.95,-1.55 c 3,-0.26 5.93,-0.4 8.85,-0.4 h 3.41 z"
         id="path52" />
      <path
         class="cls-4"
         d="M 29.46,57.07 A 46.65,46.65 0 0 0 29.4,88.81 v 0 a 46.52,46.52 0 0 0 20.37,24.41 l -1.9,3.29 v 0 l 1.9,-3.29 a 46.48,46.48 0 0 0 31.35,5.59 v 0 A 46.48,46.48 0 1 0 29.46,57.07 l -3.62,-1.32 v 0 z"
         id="path54" />
      <path
         class="cls-6"
         d="m 47.87,116.51 1.9,-3.29 A 46.52,46.52 0 0 1 29.4,88.81 v 0 l -3.22,1.15 -0.24,0.09 H 25.8 v 0 l -16,5.82 -5.22,1.91 v 0 A 70,70 0 0 0 36.6,136 l 2.77,-4.78 v 0 z"
         id="path56" />
      <path
         class="cls-5"
         d="M 98,4.42 A 72.86,72.86 0 0 0 4.59,48 l 5.25,1.91 v 0 l 19.62,7.21 a 46.5,46.5 0 1 1 51.66,61.74 l 0.66,3.74 c -0.17,-2.48 -0.39,-3.73 -0.66,-3.74 -0.27,-0.01 -0.46,0.77 -0.74,2.34 l 0.22,1.62 q 0.53,3.41 1,6.81 0.5,4.11 1,8.22 l 0.53,1.28 c 0.85,1.86 1.71,3.71 2.56,5.56 C 112.08,140 132.34,123 141.51,97.82 A 72.85,72.85 0 0 0 98,4.42 Z"
         id="path58" />
      <polyline
         class="cls-5"
         points="85.45 144.64 85.2 144.23 85.5 144.23 85.69 144.64"
         id="polyline60" />
      <path
         class="cls-7"
         d="M 29.4,88.81 A 46.65,46.65 0 0 1 29.46,57.07 L 9.84,49.86 4.59,48 a 70,70 0 0 0 0,49.83 L 9.8,95.94 Z"
         id="path62" />
      <path
         class="cls-8"
         d="m 81.8,122.55 v 0 l -0.66,-3.74 v 0 a 46.48,46.48 0 0 1 -31.35,-5.59 l -1.9,3.29 v 0 L 39.41,131.2 36.6,136 a 70,70 0 0 0 49.08,8.67 l -1,-5.43 -1.68,-9.62 z"
         id="path64" />
      <path
         class="cls-4"
         d="m 539.11395,58.294023 a 46.65,46.65 0 0 0 -0.06,31.74 v 0 a 46.52,46.52 0 0 0 20.37,24.409997 l -1.9,3.29 v 0 l 1.9,-3.29 a 46.48,46.48 0 0 0 31.35,5.59 v 0 a 46.48,46.48 0 1 0 -51.66,-61.739997 l -3.62,-1.32 v 0 z"
         id="path44-2"
         style="fill:none" />
      <path
         class="cls-4"
         d="m 539.11395,58.294023 a 46.65,46.65 0 0 0 -0.06,31.74 v 0 a 46.52,46.52 0 0 0 20.37,24.409997 l -1.9,3.29 v 0 l 1.9,-3.29 a 46.48,46.48 0 0 0 31.35,5.59 v 0 a 46.48,46.48 0 1 0 -51.66,-61.739997 l -3.62,-1.32 v 0 z"
         id="path54-2"
         style="fill:none" />
      <path
         class="cls-6"
         d="m 557.52395,117.73402 1.9,-3.29 a 46.52,46.52 0 0 1 -20.37,-24.409997 v 0 l -3.22,1.15 -0.24,0.09 h -0.14 v 0 l -16,5.82 -5.22,1.91 v 0 a 70,70 0 0 0 32.02,38.219997 l 2.77,-4.78 v 0 z"
         id="path56-7"
         style="fill:#ee3a39" />
      <path
         class="cls-5"
         d="m 607.65395,5.6440246 a 72.86,72.86 0 0 0 -93.41,43.5799984 l 5.25,1.91 v 0 l 19.62,7.21 a 46.5,46.5 0 1 1 51.66,61.739997 l 0.66,3.74 c -0.17,-2.48 -0.39,-3.73 -0.66,-3.74 -0.27,-0.01 -0.46,0.77 -0.74,2.34 l 0.22,1.62 q 0.53,3.41 1,6.81 0.5,4.11 1,8.22 l 0.53,1.28 c 0.85,1.86 1.71,3.71 2.56,5.56 26.39,-4.69 46.65,-21.69 55.82,-46.869997 a 72.85,72.85 0 0 0 -43.51,-93.3999984 z"
         id="path58-3"
         style="fill:#317d3d" />
      <polyline
         class="cls-5"
         points="85.45 144.64 85.2 144.23 85.5 144.23 85.69 144.64"
         id="polyline60-7"
         style="fill:#317d3d"
         transform="translate(509.65395,1.2240246)" />
      <path
         class="cls-7"
         d="m 539.05395,90.034023 a 46.65,46.65 0 0 1 0.06,-31.74 l -19.62,-7.21 -5.25,-1.86 a 70,70 0 0 0 0,49.83 l 5.21,-1.89 z"
         id="path62-9"
         style="fill:#64c7cd" />
      <path
         class="cls-8"
         d="m 591.45395,123.77402 v 0 l -0.66,-3.74 v 0 a 46.48,46.48 0 0 1 -31.35,-5.59 l -1.9,3.29 v 0 l -8.48,14.69 -2.81,4.8 a 70,70 0 0 0 49.08,8.67 l -1,-5.43 -1.68,-9.62 z"
         id="path64-0"
         style="fill:#336699" />
      <path
         class="cls-9"
         d="M 152,137.22 V 115.7 a 1.29,1.29 0 0 1 0.71,-1.12 3.43,3.43 0 0 1 1.8,-0.43 3.67,3.67 0 0 1 1.87,0.43 1.28,1.28 0 0 1 0.74,1.12 v 9.72 a 4.82,4.82 0 0 1 1.67,-1.79 4.41,4.41 0 0 1 2.52,-0.73 5.23,5.23 0 0 1 4.13,2 7.38,7.38 0 0 1 1.71,4.89 v 2.31 a 7.51,7.51 0 0 1 -1.73,4.88 5.09,5.09 0 0 1 -4,2.11 5.34,5.34 0 0 1 -2.81,-0.78 4.57,4.57 0 0 1 -1.81,-1.88 v 0.74 a 1.39,1.39 0 0 1 -0.68,1.09 2.56,2.56 0 0 1 -1.6,0.5 3.15,3.15 0 0 1 -1.78,-0.48 1.34,1.34 0 0 1 -0.74,-1.06 z m 5.12,-4.67 a 2.12,2.12 0 0 0 0.79,1.31 2.45,2.45 0 0 0 1.75,0.78 2.21,2.21 0 0 0 1.67,-0.76 2.54,2.54 0 0 0 0.71,-1.75 v -2.29 a 2.41,2.41 0 0 0 -0.71,-1.7 2.28,2.28 0 0 0 -1.7,-0.76 2.56,2.56 0 0 0 -1.74,0.69 2.28,2.28 0 0 0 -0.77,1.77 z"
         id="path66" />
      <path
         class="cls-9"
         d="m 169.52,137.22 v -12.58 a 1.29,1.29 0 0 1 0.71,-1.12 3.47,3.47 0 0 1 1.8,-0.43 2.9,2.9 0 0 1 1.62,0.44 1.31,1.31 0 0 1 0.66,1.13 v 1.23 a 5.55,5.55 0 0 1 1.63,-2.1 3.64,3.64 0 0 1 2.29,-0.89 h 1 a 1.61,1.61 0 0 1 1.27,0.66 2.41,2.41 0 0 1 0.54,1.56 2.46,2.46 0 0 1 -0.54,1.6 1.61,1.61 0 0 1 -1.27,0.66 h -1 a 3.19,3.19 0 0 0 -2.51,1.37 5.53,5.53 0 0 0 -1.08,3.54 v 4.93 a 1.36,1.36 0 0 1 -0.78,1.09 3.34,3.34 0 0 1 -1.83,0.49 3.13,3.13 0 0 1 -1.78,-0.48 1.32,1.32 0 0 1 -0.73,-1.1 z"
         id="path68" />
      <path
         class="cls-9"
         d="m 181.7,132.14 v -2.31 a 6.42,6.42 0 0 1 2.21,-4.87 7.44,7.44 0 0 1 5.28,-2.06 7.61,7.61 0 0 1 5.28,2 6.41,6.41 0 0 1 2.24,4.89 v 2.31 a 6.5,6.5 0 0 1 -2.26,4.88 7.6,7.6 0 0 1 -10.51,0 6.55,6.55 0 0 1 -2.24,-4.84 z m 5.11,0 a 2.53,2.53 0 0 0 0.7,1.75 2.17,2.17 0 0 0 1.68,0.76 2.23,2.23 0 0 0 1.7,-0.76 2.54,2.54 0 0 0 0.71,-1.75 v -2.29 a 2.35,2.35 0 0 0 -0.73,-1.7 2.23,2.23 0 0 0 -3.35,0 2.41,2.41 0 0 0 -0.71,1.7 z"
         id="path70" />
      <path
         class="cls-9"
         d="m 197.67,124.94 c 0,-0.55 0.38,-1 1.14,-1.43 a 4.66,4.66 0 0 1 2.23,-0.61 c 0.77,0 1.24,0.26 1.41,0.79 l 2.94,8.38 2.11,-7.1 c 0.2,-0.66 0.76,-1 1.69,-1 0.93,0 1.48,0.33 1.68,1 l 2.11,7.1 2.94,-8.38 c 0.17,-0.53 0.64,-0.79 1.38,-0.79 a 4.68,4.68 0 0 1 2.23,0.62 c 0.76,0.42 1.14,0.92 1.14,1.49 a 1.39,1.39 0 0 1 -0.13,0.63 l -5.08,12.7 c -0.25,0.59 -0.91,0.89 -2,0.89 -1.09,0 -1.9,-0.3 -2.12,-0.89 l -2.17,-5.74 -2.17,5.74 c -0.22,0.59 -0.94,0.89 -2.15,0.89 -1.05,0 -1.7,-0.3 -1.94,-0.89 l -5.09,-12.7 a 2.05,2.05 0 0 1 -0.15,-0.7 z"
         id="path72" />
      <path
         class="cls-9"
         d="m 221.46,136.1 a 2.73,2.73 0 0 1 0.5,-1.47 1.41,1.41 0 0 1 1.19,-0.78 2.09,2.09 0 0 1 1,0.33 13,13 0 0 0 1.45,0.66 5.72,5.72 0 0 0 2,0.33 c 1.36,0 2.05,-0.35 2.05,-1 0,-0.39 -0.27,-0.7 -0.8,-0.94 a 9.13,9.13 0 0 0 -1.93,-0.62 18.2,18.2 0 0 1 -2.27,-0.67 4.38,4.38 0 0 1 -1.93,-1.36 3.7,3.7 0 0 1 -0.8,-2.45 5,5 0 0 1 1.49,-3.67 c 1,-1 2.56,-1.52 4.72,-1.52 a 10.54,10.54 0 0 1 3.91,0.67 c 1.13,0.45 1.7,1 1.7,1.7 a 3.14,3.14 0 0 1 -0.53,1.54 1.53,1.53 0 0 1 -1.32,0.87 6.74,6.74 0 0 1 -1.52,-0.41 6.55,6.55 0 0 0 -2.18,-0.41 2.67,2.67 0 0 0 -1.4,0.3 0.85,0.85 0 0 0 -0.48,0.71 c 0,0.32 0.27,0.57 0.81,0.76 a 19.4,19.4 0 0 0 1.95,0.56 18,18 0 0 1 2.28,0.7 4.36,4.36 0 0 1 1.94,1.46 4.06,4.06 0 0 1 0.81,2.58 4.67,4.67 0 0 1 -1.67,3.82 7.16,7.16 0 0 1 -4.7,1.38 9.88,9.88 0 0 1 -4.42,-0.91 c -1.23,-0.64 -1.85,-1.35 -1.85,-2.16 z"
         id="path74" />
      <path
         class="cls-9"
         d="m 235.82,132.14 v -2.41 a 6.29,6.29 0 0 1 2.22,-4.82 7.75,7.75 0 0 1 5.37,-2 7.47,7.47 0 0 1 5,1.77 5.65,5.65 0 0 1 2.08,4.51 4.77,4.77 0 0 1 -0.26,1.71 1.69,1.69 0 0 1 -0.79,0.92 3.83,3.83 0 0 1 -1,0.34 6.29,6.29 0 0 1 -1.17,0.08 h -6.37 v 0.2 a 2.42,2.42 0 0 0 0.93,2 3.74,3.74 0 0 0 2.44,0.75 5.53,5.53 0 0 0 2.42,-0.62 5.2,5.2 0 0 1 1.7,-0.63 1.61,1.61 0 0 1 1.36,0.77 2.66,2.66 0 0 1 0.52,1.47 c 0,0.68 -0.59,1.35 -1.76,2 a 9,9 0 0 1 -4.37,1 9.11,9.11 0 0 1 -6,-1.93 6.25,6.25 0 0 1 -2.32,-5.11 z m 5.11,-2.78 H 245 a 0.62,0.62 0 0 0 0.7,-0.71 1.52,1.52 0 0 0 -0.71,-1.32 3,3 0 0 0 -1.7,-0.47 2.9,2.9 0 0 0 -1.67,0.47 1.52,1.52 0 0 0 -0.71,1.32 z"
         id="path76" />
      <path
         class="cls-9"
         d="m 252.78,137.22 v -12.58 a 1.27,1.27 0 0 1 0.71,-1.12 3.47,3.47 0 0 1 1.8,-0.43 2.87,2.87 0 0 1 1.61,0.44 1.29,1.29 0 0 1 0.66,1.13 v 1.23 a 5.68,5.68 0 0 1 1.64,-2.1 3.62,3.62 0 0 1 2.29,-0.89 h 1 a 1.63,1.63 0 0 1 1.27,0.66 2.41,2.41 0 0 1 0.54,1.56 2.46,2.46 0 0 1 -0.54,1.6 1.63,1.63 0 0 1 -1.27,0.66 h -1 a 3.17,3.17 0 0 0 -2.51,1.37 5.54,5.54 0 0 0 -1.09,3.54 v 4.93 a 1.36,1.36 0 0 1 -0.77,1.09 3.34,3.34 0 0 1 -1.83,0.49 3.19,3.19 0 0 1 -1.79,-0.48 1.32,1.32 0 0 1 -0.72,-1.1 z"
         id="path78" />
    </g>
  </g>
  <metadata
     id="metadata662">
    <rdf:RDF>
      <cc:Work
         rdf:about="">
        <dc:title>logo-oma_2</dc:title>
      </cc:Work>
    </rdf:RDF>
  </metadata>
</svg>
